<?xml version="1.0" encoding="UTF-8" standalone="no"?>
<!-- Created with Inkscape (http://www.inkscape.org/) -->

<svg
   width="153.25708mm"
   height="30.993887mm"
   viewBox="0 0 153.25708 30.993887"
   version="1.1"
   id="svg5"
   sodipodi:docname="adbroomslogo.svg"
   inkscape:version="1.2.2 (1:1.2.2+202212051550+b0a8486541)"
   xmlns:inkscape="http://www.inkscape.org/namespaces/inkscape"
   xmlns:sodipodi="http://sodipodi.sourceforge.net/DTD/sodipodi-0.dtd"
   xmlns="http://www.w3.org/2000/svg"
   xmlns:svg="http://www.w3.org/2000/svg">
  <sodipodi:namedview
     id="namedview18"
     pagecolor="#505050"
     bordercolor="#eeeeee"
     borderopacity="1"
     inkscape:showpageshadow="0"
     inkscape:pageopacity="0"
     inkscape:pagecheckerboard="0"
     inkscape:deskcolor="#505050"
     inkscape:document-units="mm"
     showgrid="false"
     inkscape:zoom="0.74653479"
     inkscape:cx="220.35142"
     inkscape:cy="398.50788"
     inkscape:window-width="1920"
     inkscape:window-height="1009"
     inkscape:window-x="0"
     inkscape:window-y="0"
     inkscape:window-maximized="1"
     inkscape:current-layer="svg5" />
  <defs
     id="defs2">
    <rect
       x="50.590511"
       y="204.38179"
       width="108.79506"
       height="53.507195"
       id="rect301" />
  </defs>
  <g
     id="layer1"
     transform="translate(-32.24675,-43.147349)">
    <g
       aria-label="ADB Rooms"
       id="text243"
       style="font-weight:bold;font-size:25.4px;line-height:1;font-family:Arial;-inkscape-font-specification:'Arial Bold';font-variant-ligatures:none;letter-spacing:0.529167px;word-spacing:-0.185208px;fill:#1a1a1a;stroke:#1a1a1a;stroke-width:0.264583;stroke-opacity:1">
      <g
         id="g1258"
         style="fill:#000000;stroke:#000000">
        <path
           d="m 49.363141,71.501308 c 0.396875,0 1.32705,-0.161231 1.32705,-0.669727 0,-0.04961 -0.0124,-0.09922 -0.03721,-0.16123 L 43.558844,54.596913 C 43.372809,54.187636 42.69068,54.076015 42.269,54.076015 c -0.396875,0 -1.240234,0.09922 -1.413867,0.508496 l -7.044531,16.309082 c -0.0124,0.03721 -0.02481,0.07441 -0.02481,0.111621 0,0.310059 0.508496,0.496094 1.00459,0.496094 0.409277,0 0.818555,-0.124024 0.930176,-0.384473 l 2.282031,-5.295801 h 7.72666 l 2.269629,5.146973 c 0.173633,0.396875 0.868164,0.533301 1.364258,0.533301 z m -4.254004,-7.069336 h -6.498828 l 3.212207,-7.453809 z"
           style="font-family:Gayathri;-inkscape-font-specification:'Gayathri Bold';fill:#000000;stroke:#000000;stroke-opacity:1"
           id="path1042" />
        <path
           d="m 59.80178,71.203651 c 4.985742,0 7.912695,-3.671093 7.912695,-8.359179 0,-4.675684 -2.91455,-8.470801 -7.912695,-8.470801 h -5.779492 c -0.396875,0 -1.252637,0.173633 -1.252637,0.694531 V 70.50912 c 0,0.520899 0.855762,0.694531 1.252637,0.694531 z"
           style="font-family:Gayathri;-inkscape-font-specification:'Gayathri Bold';fill:#000000;stroke:#000000;stroke-opacity:1"
           id="path1044" />
        <path
           d="m 79.021277,71.203651 c 2.654102,0 5.097364,-1.810742 5.097364,-4.55166 0,-1.798339 -1.128614,-3.33623 -2.765723,-4.067968 1.21543,-0.84336 1.95957,-2.195215 1.95957,-3.658692 0,-2.703711 -2.356445,-4.55166 -4.998144,-4.55166 h -6.945313 c -0.409277,0 -1.265039,0.173633 -1.265039,0.694531 V 70.50912 c 0,0.533301 0.892969,0.694531 1.265039,0.694531 z m -0.706933,-9.10332 h -5.692676 v -6.337597 h 5.692676 c 1.500683,0 2.480469,1.860351 2.480469,3.162597 0,1.302246 -0.979786,3.175 -2.480469,3.175 z m 0.706933,7.714258 h -6.399609 v -6.337598 h 6.399609 c 1.537891,0 2.579688,1.810743 2.579688,3.175 0,1.351856 -1.041797,3.162598 -2.579688,3.162598 z"
           style="font-family:Gayathri;-inkscape-font-specification:'Gayathri Bold';fill:#000000;stroke:#000000;stroke-opacity:1"
           id="path1046" />
        <path
           d="m 107.4028,71.501308 c 0.33487,0 0.68213,-0.07441 0.93018,-0.235645 0.22324,-0.136426 0.32246,-0.297656 0.32246,-0.458887 0,-0.198437 -0.14883,-0.384472 -0.40928,-0.520898 -1.36426,-0.682129 -2.08359,-2.344043 -2.6665,-3.646289 -0.5085,-1.116211 -1.0542,-2.331641 -1.98438,-3.187402 2.22002,-0.434082 4.16719,-2.120801 4.16719,-4.477246 0,-2.864942 -2.77812,-4.60127 -5.46943,-4.60127 h -7.677053 c -0.396875,0 -1.252637,0.173633 -1.252637,0.694531 v 15.738574 c 0,0.520899 0.855762,0.694532 1.252637,0.694532 0.409277,0 1.265039,-0.173633 1.265039,-0.694532 v -7.218164 h 4.204394 c 1.67432,0 2.49287,2.133204 3.05098,3.38584 0.75654,1.674317 1.53789,3.398242 3.42304,4.340821 0.23565,0.124023 0.54571,0.186035 0.84336,0.186035 z m -5.10976,-9.301758 h -6.412014 v -6.436816 h 6.412014 c 1.67431,0 2.95176,1.649511 2.95176,3.212207 0,1.562695 -1.27745,3.224609 -2.95176,3.224609 z"
           style="font-family:Gayathri;-inkscape-font-specification:'Gayathri Bold';fill:#000000;stroke:#000000;stroke-opacity:1"
           id="path1048" />
        <path
           d="m 117.18412,71.501308 c 3.86953,0 6.75928,-2.480469 6.75928,-6.35 0,-3.869531 -2.88975,-6.35 -6.75928,-6.35 -3.86953,0 -6.75928,2.480469 -6.75928,6.35 0,3.869531 2.88975,6.35 6.75928,6.35 z m 0.28592,-5.095625 c -2.75332,0 -5.40626,5.543192 -5.40626,3.087528 0,-2.455664 2.36702,-9.315243 5.12034,-9.315243 2.75332,0 5.07467,6.907084 5.07467,9.362748 0,2.455664 -2.03543,-3.135033 -4.78875,-3.135033 z"
           style="font-family:Gayathri;-inkscape-font-specification:'Gayathri Bold';fill:#000000;stroke:#000000;stroke-opacity:1"
           id="path1050" />
        <path
           d="m 132.47208,71.501308 c 3.86953,0 6.75927,-2.480469 6.75927,-6.35 0,-3.869531 -2.88974,-6.35 -6.75927,-6.35 -3.86953,0 -6.75928,2.480469 -6.75928,6.35 0,3.869531 2.88975,6.35 6.75928,6.35 z m 0,-1.37666 c -2.75332,0 -4.24161,-2.517676 -4.24161,-4.97334 0,-2.455664 1.48829,-4.97334 4.24161,-4.97334 2.75332,0 4.2416,2.517676 4.2416,4.97334 0,2.455664 -1.48828,4.97334 -4.2416,4.97334 z"
           style="font-family:Gayathri;-inkscape-font-specification:'Gayathri Bold';fill:#000000;stroke:#000000;stroke-opacity:1"
           id="path1052" />
        <path
           d="m 159.7655,71.501308 c 0.40928,0 1.26504,-0.173633 1.26504,-0.694532 v -6.449218 c 0,-3.22461 -2.1332,-5.55625 -5.48184,-5.55625 -1.6247,0 -3.175,0.570508 -4.21679,1.823144 -1.0542,-1.252636 -2.33164,-1.823144 -3.95635,-1.823144 -1.0666,0 -2.28203,0.310058 -3.23701,1.451074 v -8.748203 c 0,-0.520898 -0.85576,-0.694531 -1.25264,-0.694531 -0.40928,0 -1.26504,0.173633 -1.26504,0.694531 v 19.302597 c 0,0.520899 0.85576,0.694532 1.26504,0.694532 0.39688,0 1.25264,-0.173633 1.25264,-0.694532 v -6.461621 c 0,-0.95498 0.18603,-2.021582 0.69453,-2.852539 0.5085,-0.830957 1.26504,-1.277441 2.25723,-1.277441 2.29443,0 2.99558,2.282043 2.98896,4.142383 l -0.0319,8.956855 c -0.002,0.520896 0.85576,0.694532 1.25264,0.694532 0.39687,0 1.26318,-0.173636 1.26504,-0.694532 l 0.0319,-8.969258 c 0.006,-1.810731 0.66972,-4.12998 2.93935,-4.12998 2.28203,0 2.97656,2.282031 2.97656,4.142383 v 6.449218 c 0,0.520899 0.85577,0.694532 1.25264,0.694532 z"
           style="font-family:Gayathri;-inkscape-font-specification:'Gayathri Bold';fill:#000000;stroke:#000000;stroke-opacity:1"
           id="path1054" />
        <path
           d="m 169.03832,71.501308 c 2.25723,0 5.49424,-1.128614 5.49424,-3.869532 0,-1.190625 -0.5457,-1.996777 -1.52549,-2.616894 -1.14101,-0.719336 -2.34404,-0.855762 -3.65869,-1.054199 -0.64492,-0.09922 -1.31465,-0.248047 -1.92236,-0.483692 -0.4961,-0.198437 -1.19063,-0.570507 -1.19063,-1.190625 0,-1.438671 1.5751,-2.108398 2.81533,-2.108398 1.30225,0 2.33164,0.731738 2.6417,1.996777 0.11162,0.446485 0.85576,0.595313 1.25264,0.595313 0.38447,-0.0124 1.25264,-0.186035 1.25264,-0.669727 0,-0.07441 -0.0124,-0.136426 -0.0372,-0.21084 -0.59531,-2.195214 -2.95176,-3.088183 -5.09736,-3.088183 -2.096,0 -5.33301,0.967383 -5.33301,3.509863 0,1.141016 0.62011,2.033984 1.55029,2.654102 1.14102,0.756543 2.41846,0.868164 3.74551,1.054199 0.63252,0.08682 1.32705,0.223242 1.92236,0.483691 0.5085,0.223242 1.07901,0.58291 1.07901,1.203028 0,1.550292 -1.63711,2.418457 -3.00137,2.418457 -1.5627,0 -2.69131,-0.880567 -3.10059,-2.406055 -0.11162,-0.434082 -0.85576,-0.58291 -1.25263,-0.58291 -0.38448,0 -1.25264,0.186035 -1.25264,0.682129 0,0.07441 0.0248,0.148828 0.0496,0.223242 0.73174,2.455664 3.12539,3.460254 5.56865,3.460254 z"
           style="font-family:Gayathri;-inkscape-font-specification:'Gayathri Bold';fill:#000000;stroke:#000000;stroke-opacity:1"
           id="path1056" />
        <path
           id="rect1246"
           style="fill:#000000;fill-opacity:1;stroke:#000000;stroke-width:2;stroke-linejoin:round;stroke-dasharray:none;stroke-opacity:1;paint-order:stroke fill markers"
           d="M 185.50383,44.147349 H 32.24675 Z" />
      </g>
    </g>
    <text
       xml:space="preserve"
       transform="scale(0.26458333)"
       id="text299"
       style="font-weight:bold;font-size:12px;line-height:1;font-family:Arial;-inkscape-font-specification:'Arial Bold';font-variant-ligatures:none;letter-spacing:2px;word-spacing:-0.7px;white-space:pre;shape-inside:url(#rect301);display:inline" />
  </g>
</svg>
